<svg xmlns="http://www.w3.org/2000/svg" xmlns:xlink="http://www.w3.org/1999/xlink" version="1.1" width="256" height="256" viewBox="0 0 256 256" xml:space="preserve">
<g style="stroke: none; stroke-width: 0; stroke-dasharray: none; stroke-linecap: butt; stroke-linejoin: miter; stroke-miterlimit: 10; fill: none; fill-rule: nonzero; opacity: 1;" transform="translate(1.4065934065934016 1.4065934065934016) scale(2.81 2.81)">
	<path d="M 16.496 29.438 c -0.12 0 -0.239 -0.03 -0.347 -0.09 c -3.299 -1.841 -8.438 -6.165 -10.573 -8.898 c -0.242 -0.31 -0.187 -0.758 0.123 -1 c 0.31 -0.242 0.757 -0.187 1 0.123 c 1.934 2.475 6.67 6.489 9.798 8.332 c 3.128 -1.843 7.864 -5.857 9.797 -8.332 c 4.052 -5.186 5.018 -11.182 2.297 -14.255 c -1.253 -1.415 -3.018 -2.231 -4.972 -2.299 c -2.328 -0.084 -4.683 0.926 -6.623 2.834 c -0.277 0.273 -0.722 0.273 -0.998 0 c -1.94 -1.908 -4.293 -2.917 -6.624 -2.834 C 7.419 3.086 5.654 3.902 4.401 5.317 c -1.504 1.699 -1.915 4.326 -1.157 7.395 c 0.094 0.382 -0.139 0.768 -0.521 0.862 c -0.382 0.094 -0.768 -0.139 -0.862 -0.521 c -0.873 -3.537 -0.35 -6.62 1.474 -8.68 c 1.514 -1.71 3.641 -2.697 5.989 -2.778 c 2.526 -0.083 5.048 0.895 7.172 2.776 c 2.124 -1.882 4.655 -2.864 7.172 -2.776 c 2.348 0.081 4.475 1.068 5.988 2.778 c 3.176 3.588 2.234 10.348 -2.241 16.076 c -2.135 2.733 -7.273 7.057 -10.572 8.898 C 16.735 29.407 16.615 29.438 16.496 29.438 z" style="stroke: none; stroke-width: 1; stroke-dasharray: none; stroke-linecap: butt; stroke-linejoin: miter; stroke-miterlimit: 10; fill: rgb(30,144,255); fill-rule: nonzero; opacity: 1;" transform=" matrix(2.81 0 0 2.81 1.4065934065934016 1.4065934065934016) " stroke-linecap="round"/>
	<path d="M 40.229 64.315 c -0.042 0 -0.085 -0.001 -0.127 -0.004 c -0.821 -0.052 -1.526 -0.602 -1.778 -1.384 l -7.652 -23.809 L 26.174 49.93 c -0.31 0.746 -1.039 1.233 -1.847 1.233 H 2.001 C 0.896 51.163 0 50.267 0 49.162 s 0.896 -2.001 2.001 -2.001 h 20.991 l 6.073 -14.601 c 0.322 -0.775 1.093 -1.28 1.93 -1.23 c 0.838 0.035 1.565 0.588 1.822 1.387 l 7.758 24.138 l 8.763 -18.718 c 0.328 -0.701 1.032 -1.15 1.805 -1.152 c 0.002 0 0.005 0 0.007 0 c 0.772 0 1.474 0.444 1.806 1.141 l 4.934 10.359 l 1.539 -2.381 c 0.368 -0.571 1.001 -0.915 1.68 -0.915 h 12.096 c 1.105 0 2.001 0.896 2.001 2.001 s -0.896 2.001 -2.001 2.001 H 62.198 l -2.893 4.477 c -0.393 0.61 -1.085 0.966 -1.809 0.911 c -0.724 -0.047 -1.366 -0.482 -1.677 -1.136 l -4.653 -9.771 L 42.04 63.162 C 41.71 63.868 41.001 64.315 40.229 64.315 z" style="stroke: none; stroke-width: 1; stroke-dasharray: none; stroke-linecap: butt; stroke-linejoin: miter; stroke-miterlimit: 10; fill: rgb(30,144,255); fill-rule: nonzero; opacity: 1;" transform=" matrix(1 0 0 1 0 0) " stroke-linecap="round"/>
</g>
</svg>